Coordinates
version=1
nRows=33
nColumns=33
inDegrees=yes

Units are S.I. units (second, meters, Newtons, ...)
Angles are in degrees.

endheader
time	ground_thorax_rot_x	ground_thorax_rot_y	ground_thorax_rot_z	ground_thorax_tx	ground_thorax_ty	ground_thorax_tz	clav_prot_r	clav_elev_r	scapula_abduction_r	scapula_elevation_r	scapula_upward_rot_r	scapula_winging_r	shoulder_elv_r	plane_of_elev_r	axial_rot_r	elbow_flexion_r	pro_sup_r	wrist_flex_r	wrist_dev_r	clav_prot_l	clav_elev_l	scapula_abduction_l	scapula_elevation_l	scapula_upward_rot_l	scapula_winging_l	shoulder_elv_l	plane_of_elev_l	axial_rot_l	elbow_flexion_l	pro_sup_l	wrist_flex_l	wrist_dev_l	
7.4600	-39.680180	-5.910292	9.199153	-251.248188	833.083818	7.506654	10.351690	-45.000000	40.707752	-45.000000	-45.000000	3499.594231	-105.286834	146.640269	180.000000	1086.759986	61.514217	27.254734	9.735663	14.190644	37.410778	-35.102730	-45.000000	-45.000000	-3517.328386	809.655462	18.313699	-180.000000	1791.320134	119.308731	9.747004	-12.022717	
7.4700	-39.690665	-5.913781	9.297722	-251.822981	832.635562	7.753574	10.273416	-45.000000	40.588383	-45.000000	-45.000000	3499.616929	-105.387393	146.693708	180.000000	1086.745516	61.229719	27.252831	9.844456	14.144603	37.403429	-34.943194	-45.000000	-45.000000	-3517.457133	809.587893	18.292838	-180.000000	1791.301735	119.345136	9.732313	-12.066100	
7.4800	-39.706617	-5.918543	9.384617	-252.328282	832.177549	7.989374	10.179875	-45.000000	40.481804	-45.000000	-45.000000	3499.649664	-105.486427	146.748924	180.000000	1086.744214	60.927358	27.266442	9.988092	14.081612	37.426867	-34.797692	-45.000000	-45.000000	-3517.587260	809.531939	18.263216	-180.000000	1791.279117	119.382145	9.722366	-12.095523	
7.4900	-39.723248	-5.932380	9.464132	-252.673377	831.693993	8.202853	10.137447	-45.000000	40.403075	-45.000000	-45.000000	3499.679915	-105.586102	146.799354	180.000000	1086.772864	60.559300	27.242321	10.080210	14.056575	37.425240	-34.682126	-45.000000	-45.000000	-3517.706235	809.467090	18.241913	-180.000000	1791.248891	119.411342	9.688547	-12.177841	
7.5000	-39.743246	-5.956434	9.534884	-252.863261	831.191068	8.391676	10.118963	-45.000000	40.341666	-45.000000	-45.000000	3499.715785	-105.681263	146.843880	180.000000	1086.821279	60.140453	27.198207	10.155781	14.050838	37.412655	-34.592645	-45.000000	-45.000000	-3517.814517	809.405632	18.229059	-180.000000	1791.214543	119.428398	9.637189	-12.293596	
7.5100	-39.768440	-5.986648	9.588541	-252.893973	830.674787	8.553058	10.118016	-45.000000	40.301137	-45.000000	-45.000000	3499.755736	-105.771575	146.884045	180.000000	1086.897018	59.675669	27.140735	10.221404	14.057938	37.404578	-34.531132	-45.000000	-45.000000	-3517.917542	809.354437	18.219578	-180.000000	1791.171508	119.429887	9.571365	-12.436135	
7.5200	-39.799676	-6.027280	9.628941	-252.789046	830.158845	8.687908	10.125571	-45.000000	40.265212	-45.000000	-45.000000	3499.803085	-105.851182	146.915129	180.000000	1086.982595	59.184087	27.073043	10.285962	14.075656	37.386951	-34.489137	-45.000000	-45.000000	-3518.008066	809.315795	18.223458	-180.000000	1791.127349	119.408411	9.490681	-12.600303	
7.5300	-39.837668	-6.067223	9.641444	-252.583103	829.660815	8.799778	10.128075	-45.000000	40.241084	-45.000000	-45.000000	3499.855183	-105.921349	146.938907	180.000000	1087.084713	58.683382	27.009135	10.361590	14.089981	37.387126	-34.464608	-45.000000	-45.000000	-3518.097277	809.296677	18.228626	-180.000000	1791.075167	119.362702	9.405492	-12.765749	
7.5400	-39.879216	-6.113855	9.638704	-252.307115	829.198831	8.893736	10.132068	-45.000000	40.214860	-45.000000	-45.000000	3499.911710	-105.976753	146.953190	180.000000	1087.189611	58.189186	26.943140	10.440060	14.109407	37.374677	-34.449715	-45.000000	-45.000000	-3518.172774	809.289246	18.247309	-180.000000	1791.025079	119.285197	9.311947	-12.934599	
7.5500	-39.924372	-6.153500	9.604246	-251.985089	828.790232	8.975840	10.134296	-45.000000	40.201083	-45.000000	-45.000000	3499.967549	-106.020618	146.956669	180.000000	1087.310683	57.707706	26.883756	10.523552	14.123678	37.378849	-34.446347	-45.000000	-45.000000	-3518.245794	809.298962	18.264140	-180.000000	1790.967065	119.174585	9.220983	-13.088470	
7.5600	-39.968679	-6.196852	9.553942	-251.631738	828.450386	9.052451	10.139018	-45.000000	40.197671	-45.000000	-44.999999	3500.023895	-106.049845	146.954946	180.000000	1087.446175	57.248687	26.827687	10.606557	14.140020	37.370479	-34.450994	-45.000000	-45.000000	-3518.305265	809.312873	18.283805	-180.000000	1790.908016	119.022743	9.129931	-13.228259	
7.5700	-40.012237	-6.227417	9.474454	-251.250656	828.190689	9.129627	10.147215	-45.000000	40.212270	-45.000000	-44.999999	3500.076266	-106.064764	146.938295	180.000000	1087.597312	56.814935	26.778998	10.689517	14.147381	37.380341	-34.463608	-45.000000	-45.000000	-3518.364358	809.346457	18.297764	-180.000000	1790.837612	118.823944	9.048883	-13.338594	
7.5800	-40.051254	-6.257827	9.387933	-250.835072	828.017428	9.212401	10.165321	-45.000000	40.240662	-45.000000	-44.999997	3500.126871	-106.061315	146.914203	180.000000	1087.755725	56.413313	26.732887	10.768833	14.153134	37.377294	-34.479083	-45.000000	-45.000000	-3518.412622	809.393268	18.316047	-180.000000	1790.763454	118.565182	8.973349	-13.423153	
7.5900	-40.086927	-6.277841	9.283166	-250.369231	827.930382	9.304190	10.194754	-45.000000	40.288446	-45.000000	-44.999995	3500.174189	-106.039865	146.871665	180.000000	1087.916976	56.042854	26.691134	10.845039	14.145596	37.386723	-34.492673	-45.000000	-45.000000	-3518.463442	809.468994	18.334009	-180.000000	1790.676392	118.237816	8.910489	-13.471861	
7.6000	-40.116025	-6.302936	9.180161	-249.831633	827.922826	9.406259	10.237573	-45.000000	40.356288	-45.000000	-44.999992	3500.222386	-106.001535	146.823966	180.000000	1088.082453	55.705020	26.650770	10.914481	14.129620	37.379535	-34.504785	-45.000000	-45.000000	-3518.510085	809.556974	18.354034	-180.000000	1790.581626	117.828580	8.854172	-13.491971	
7.6100	-40.140597	-6.324355	9.070060	-249.197639	827.981765	9.517627	10.289362	-45.000000	40.434369	-45.000000	-44.999985	3500.274100	-105.943230	146.757274	180.000000	1088.244914	55.394752	26.612147	10.978428	14.097463	37.377510	-34.515207	-45.000000	-45.000000	-3518.561636	809.668057	18.375131	-180.000000	1790.474018	117.329588	8.808061	-13.477677	
7.6200	-40.159005	-6.341068	8.963394	-248.442771	828.089951	9.635206	10.341486	-45.000000	40.510762	-45.000000	-44.999974	3500.331744	-105.864800	146.680377	180.000000	1088.412835	55.105134	26.572385	11.033503	14.066659	37.362524	-34.552138	-45.000000	-45.000000	-3518.602323	809.767396	18.399287	-180.000000	1790.353093	116.725221	8.767027	-13.434995	
7.6300	-40.172544	-6.347490	8.851999	-247.544289	828.227869	9.754458	10.388177	-45.000000	40.581898	-45.000000	-44.999953	3500.395520	-105.765765	146.585002	180.000000	1088.589921	54.827683	26.532156	11.080458	14.034325	37.352221	-34.618161	-45.000000	-45.000000	-3518.639755	809.858856	18.422221	-180.000000	1790.212566	116.013730	8.733063	-13.361469	
7.6400	-40.182841	-6.339593	8.739709	-246.482521	828.376282	9.870164	10.425681	-45.000000	40.646707	-45.000000	-44.999916	3500.468261	-105.653944	146.479977	180.000000	1088.782404	54.555805	26.487733	11.116599	14.023813	37.343088	-34.733990	-45.000000	-45.000000	-3518.660058	809.923498	18.449864	-180.000000	1790.055578	115.189656	8.701799	-13.261640	
7.6500	-40.193784	-6.321649	8.625616	-245.241078	828.517943	9.977279	10.457497	-45.000000	40.702986	-45.000000	-44.999850	3500.554183	-105.530336	146.360694	180.000000	1088.979077	54.285214	26.435848	11.144077	14.037527	37.348476	-34.882398	-45.000000	-45.000000	-3518.669383	809.985163	18.489706	-180.000000	1789.888218	114.259814	8.671870	-13.135769	
7.6600	-40.207383	-6.292591	8.511177	-243.807173	828.638817	10.071548	10.485934	-45.000000	40.756013	-45.000000	-44.999731	3500.655619	-105.401180	146.231846	180.000000	1089.176215	54.009391	26.372703	11.163617	14.086748	37.366060	-35.070022	-45.000000	-45.000000	-3518.660810	810.039626	18.546405	-180.000000	1789.713726	113.229095	8.640524	-12.987663	
7.6700	-40.222280	-6.272170	8.403236	-242.171413	828.728164	10.149897	10.518132	-45.000000	40.822855	-45.000000	-44.999518	3500.773676	-105.268286	146.101330	180.000000	1089.377084	53.723295	26.298604	11.177511	14.155442	37.395649	-35.266822	-45.000000	-45.000000	-3518.653728	810.108981	18.610264	-180.000000	1789.534759	112.117684	8.606243	-12.821746	
7.6800	-40.239368	-6.260807	8.303357	-240.327355	828.777838	10.210567	10.558558	-45.000000	40.903685	-45.000000	-44.999136	3500.907567	-105.134180	145.967688	180.000000	1089.577500	53.420452	26.212054	11.188704	14.237786	37.431456	-35.473311	-45.000000	-45.000000	-3518.647032	810.194284	18.682159	-180.000000	1789.352866	110.942294	8.567983	-12.641632	
7.6900	-40.256277	-6.268421	8.214809	-238.271117	828.781108	10.252965	10.605454	-45.000000	41.001574	-45.000000	-44.998452	3501.057180	-104.996392	145.834045	180.000000	1089.782945	53.092861	26.114557	11.200593	14.320618	37.470507	-35.677616	-45.000000	-45.000000	-3518.653646	810.300434	18.751551	-180.000000	1789.166154	109.724365	8.526236	-12.449575	
7.7000	-40.272179	-6.285673	8.135444	-236.000529	828.731326	10.277393	10.655307	-45.000000	41.109666	-45.000000	-44.997227	3501.217195	-104.852695	145.694489	180.000000	1089.992699	52.731365	26.006154	11.217129	14.398902	37.508244	-35.895725	-45.000000	-45.000000	-3518.670339	810.414628	18.817143	-180.000000	1788.969428	108.481048	8.482490	-12.246291	
7.7100	-40.285698	-6.317830	8.067846	-233.514489	828.620854	10.284712	10.708226	-45.000000	41.228350	-45.000000	-44.995031	3501.384598	-104.704337	145.547176	180.000000	1090.207373	52.328051	25.887887	11.242890	14.461439	37.538681	-36.121217	-45.000000	-45.000000	-3518.703789	810.538176	18.874663	-180.000000	1788.762732	107.235083	8.437134	-12.032949	
7.7200	-40.298631	-6.359042	8.011124	-230.812083	828.440235	10.275924	10.764177	-45.000000	41.351679	-45.000000	-44.991106	3501.556882	-104.553851	145.385827	180.000000	1090.416820	51.876653	25.758828	11.283014	14.507070	37.559079	-36.358350	-45.000000	-44.999999	-3518.748203	810.670111	18.933064	-180.000000	1788.549829	106.009304	8.390277	-11.809955	
7.7300	-40.311979	-6.412915	7.969400	-227.892436	828.178043	10.251972	10.811066	-45.000000	41.474108	-45.000000	-44.984051	3501.743254	-104.403226	145.218732	180.000000	1090.619199	51.365548	25.614899	11.337249	14.566255	37.583923	-36.612621	-45.000000	-44.999999	-3518.800651	810.801813	18.990415	-180.000000	1788.338260	104.820284	8.341832	-11.574638	
7.7400	-40.326622	-6.479233	7.946739	-224.754103	827.820875	10.213355	10.847447	-45.000000	41.592035	-45.000000	-44.971478	3501.943109	-104.252823	145.046672	180.000000	1090.807182	50.786072	25.454604	11.409000	14.642950	37.615541	-36.884508	-45.000000	-44.999998	-3518.860572	810.931134	19.049637	-180.000000	1788.133794	103.690897	8.291310	-11.328065	
7.7500	-40.341149	-6.559398	7.948152	-221.396309	827.354693	10.160720	10.859733	-45.000000	41.701119	-45.000000	-44.948779	3502.164725	-104.103292	144.882251	180.000000	1090.978918	50.123574	25.274084	11.498281	14.768506	37.667277	-37.178684	-45.000000	-44.999997	-3518.929633	811.051107	19.103959	-180.000000	1787.939118	102.641166	8.239381	-11.069509	
7.7600	-40.354928	-6.652962	7.973996	-217.819641	826.766238	10.095396	10.857246	-45.000000	41.803069	-45.000000	-44.908612	3502.403110	-103.959593	144.722753	180.000000	1091.125729	49.375672	25.074800	11.610780	14.925022	37.732015	-37.490487	-45.000000	-44.999994	-3519.008046	811.161506	19.158662	-180.000000	1787.760203	101.701029	8.185113	-10.805961	
7.7700	-40.367106	-6.759407	8.020947	-214.028054	826.045252	10.020602	10.833477	-45.000000	41.901242	-45.000000	-44.835283	3502.664370	-103.826613	144.578896	180.000000	1091.246679	48.540839	24.856674	11.747927	15.127102	37.816306	-37.821929	-45.000000	-44.999989	-3519.098618	811.258881	19.209264	-180.000000	1787.602357	100.897971	8.128768	-10.542568	
7.7800	-40.378935	-6.874317	8.077063	-210.027935	825.184642	9.940862	10.809529	-45.000000	42.005489	-45.000000	-44.707774	3502.937213	-103.713802	144.439899	180.000000	1091.335155	47.637390	24.627531	11.918238	15.329323	37.901067	-38.164137	-45.000000	-44.999981	-3519.202738	811.348744	19.265002	-180.000000	1787.473345	100.267366	8.069121	-10.293201	
